<svg width="200" height="200" viewBox="0 0 200 200" fill="none" xmlns="http://www.w3.org/2000/svg">
<circle cx="100" cy="100" r="100" fill="#252525"/>
<rect x="38.75" y="48.75" width="122.5" height="47.5" rx="4" fill="white"/>
<mask id="mask0_8657_119377" style="mask-type:alpha" maskUnits="userSpaceOnUse" x="0" y="0" width="200" height="200">
<circle cx="100" cy="100" r="100" fill="#7A71FF"/>
</mask>
<g mask="url(#mask0_8657_119377)">
<rect x="38.75" y="103.75" width="122.5" height="98.75" rx="4" fill="white"/>
</g>
<circle cx="57.5" cy="72.5" r="11.25" fill="#B2AFE5"/>
<path d="M73.75 65C73.75 62.9289 75.4289 61.25 77.5 61.25H137.5C139.571 61.25 141.25 62.9289 141.25 65C141.25 67.0711 139.571 68.75 137.5 68.75H77.5C75.4289 68.75 73.75 67.0711 73.75 65Z" fill="#C6C6CF"/>
<path d="M47.5 121.25C47.5 119.179 49.1789 117.5 51.25 117.5H150C152.071 117.5 153.75 119.179 153.75 121.25C153.75 123.321 152.071 125 150 125H51.25C49.1789 125 47.5 123.321 47.5 121.25Z" fill="#C6C6CF"/>
<path d="M73.75 80C73.75 77.9289 75.4289 76.25 77.5 76.25H110C112.071 76.25 113.75 77.9289 113.75 80C113.75 82.0711 112.071 83.75 110 83.75H77.5C75.4289 83.75 73.75 82.0711 73.75 80Z" fill="#EBEBEB"/>
<path d="M47.5 136.25C47.5 134.179 49.1789 132.5 51.25 132.5H111.25C113.321 132.5 115 134.179 115 136.25C115 138.321 113.321 140 111.25 140H51.25C49.1789 140 47.5 138.321 47.5 136.25Z" fill="#EBEBEB"/>
<path d="M47.5 148.75C47.5 146.679 49.1789 145 51.25 145H83.75C85.8211 145 87.5 146.679 87.5 148.75C87.5 150.821 85.8211 152.5 83.75 152.5H51.25C49.1789 152.5 47.5 150.821 47.5 148.75Z" fill="#EBEBEB"/>
</svg>
